<svg width="68" height="46" viewBox="0 0 68 46" fill="none" xmlns="http://www.w3.org/2000/svg">
<path d="M2.40199 9.36364H9.60795L17.2188 27.9318H17.5426L25.1534 9.36364H32.3594V37H26.6918V19.0121H26.4624L19.3104 36.8651H15.451L8.29901 18.9446H8.0696V37H2.40199V9.36364Z" fill="#48A6FB"/>
<path d="M36.4545 19.1648C35.8977 19.1648 35.4015 19.0682 34.9659 18.875C34.5303 18.678 34.1856 18.3883 33.9318 18.0057C33.6818 17.6193 33.5568 17.1383 33.5568 16.5625C33.5568 16.0777 33.6458 15.6705 33.8239 15.3409C34.0019 15.0114 34.2443 14.7462 34.5511 14.5455C34.858 14.3447 35.2064 14.1932 35.5966 14.0909C35.9905 13.9886 36.4034 13.9167 36.8352 13.875C37.3428 13.822 37.7519 13.7727 38.0625 13.7273C38.3731 13.678 38.5985 13.6061 38.7386 13.5114C38.8788 13.4167 38.9489 13.2765 38.9489 13.0909V13.0568C38.9489 12.697 38.8352 12.4186 38.608 12.2216C38.3845 12.0246 38.0663 11.9261 37.6534 11.9261C37.2178 11.9261 36.8712 12.0227 36.6136 12.2159C36.3561 12.4053 36.1856 12.6439 36.1023 12.9318L33.8636 12.75C33.9773 12.2197 34.2008 11.7614 34.5341 11.375C34.8674 10.9848 35.2973 10.6856 35.8239 10.4773C36.3542 10.2652 36.9678 10.1591 37.6648 10.1591C38.1496 10.1591 38.6136 10.2159 39.0568 10.3295C39.5038 10.4432 39.8996 10.6193 40.2443 10.858C40.5928 11.0966 40.8674 11.4034 41.0682 11.7784C41.2689 12.1496 41.3693 12.5947 41.3693 13.1136V19H39.0739V17.7898H39.0057C38.8655 18.0625 38.678 18.303 38.4432 18.5114C38.2083 18.7159 37.9261 18.8769 37.5966 18.9943C37.267 19.108 36.8864 19.1648 36.4545 19.1648ZM37.1477 17.4943C37.5038 17.4943 37.8182 17.4242 38.0909 17.2841C38.3636 17.1402 38.5777 16.947 38.733 16.7045C38.8883 16.4621 38.9659 16.1875 38.9659 15.8807V14.9545C38.8902 15.0038 38.786 15.0492 38.6534 15.0909C38.5246 15.1288 38.3788 15.1648 38.2159 15.1989C38.053 15.2292 37.8902 15.2576 37.7273 15.2841C37.5644 15.3068 37.4167 15.3277 37.2841 15.3466C37 15.3883 36.7519 15.4545 36.5398 15.5455C36.3277 15.6364 36.1629 15.7595 36.0455 15.9148C35.928 16.0663 35.8693 16.2557 35.8693 16.483C35.8693 16.8125 35.9886 17.0644 36.2273 17.2386C36.4697 17.4091 36.7765 17.4943 37.1477 17.4943ZM47.1903 19.1705C46.2964 19.1705 45.5275 18.9811 44.8835 18.6023C44.2434 18.2197 43.7509 17.6894 43.4062 17.0114C43.0653 16.3333 42.8949 15.553 42.8949 14.6705C42.8949 13.7765 43.0672 12.9924 43.4119 12.3182C43.7604 11.6402 44.2547 11.1117 44.8949 10.733C45.535 10.3504 46.2964 10.1591 47.179 10.1591C47.9403 10.1591 48.607 10.2973 49.179 10.5739C49.7509 10.8504 50.2036 11.2386 50.5369 11.7386C50.8703 12.2386 51.054 12.8258 51.0881 13.5H48.804C48.7396 13.0644 48.5691 12.714 48.2926 12.4489C48.0199 12.1799 47.6619 12.0455 47.2188 12.0455C46.8438 12.0455 46.5161 12.1477 46.2358 12.3523C45.9593 12.553 45.7434 12.8466 45.5881 13.233C45.4328 13.6193 45.3551 14.0871 45.3551 14.6364C45.3551 15.1932 45.4309 15.6667 45.5824 16.0568C45.7377 16.447 45.9555 16.7443 46.2358 16.9489C46.5161 17.1534 46.8438 17.2557 47.2188 17.2557C47.4953 17.2557 47.7434 17.1989 47.9631 17.0852C48.1866 16.9716 48.3703 16.8068 48.5142 16.5909C48.6619 16.3712 48.7585 16.108 48.804 15.8011H51.0881C51.0502 16.4678 50.8684 17.0549 50.5426 17.5625C50.2206 18.0663 49.7756 18.4602 49.2074 18.7443C48.6392 19.0284 47.9669 19.1705 47.1903 19.1705ZM52.6378 19V10.2727H54.9844V11.7955H55.0753C55.2344 11.2538 55.5014 10.8447 55.8764 10.5682C56.2514 10.2879 56.6832 10.1477 57.1719 10.1477C57.2931 10.1477 57.4238 10.1553 57.5639 10.1705C57.7041 10.1856 57.8272 10.2064 57.9332 10.233V12.3807C57.8196 12.3466 57.6624 12.3163 57.4616 12.2898C57.2609 12.2633 57.0772 12.25 56.9105 12.25C56.5545 12.25 56.2363 12.3277 55.956 12.483C55.6795 12.6345 55.4598 12.8466 55.2969 13.1193C55.1378 13.392 55.0582 13.7064 55.0582 14.0625V19H52.6378ZM62.7216 19.1705C61.839 19.1705 61.0758 18.983 60.4318 18.608C59.7917 18.2292 59.2973 17.7027 58.9489 17.0284C58.6004 16.3504 58.4261 15.5644 58.4261 14.6705C58.4261 13.7689 58.6004 12.9811 58.9489 12.3068C59.2973 11.6288 59.7917 11.1023 60.4318 10.7273C61.0758 10.3485 61.839 10.1591 62.7216 10.1591C63.6042 10.1591 64.3655 10.3485 65.0057 10.7273C65.6496 11.1023 66.1458 11.6288 66.4943 12.3068C66.8428 12.9811 67.017 13.7689 67.017 14.6705C67.017 15.5644 66.8428 16.3504 66.4943 17.0284C66.1458 17.7027 65.6496 18.2292 65.0057 18.608C64.3655 18.983 63.6042 19.1705 62.7216 19.1705ZM62.733 17.2955C63.1345 17.2955 63.4697 17.1818 63.7386 16.9545C64.0076 16.7235 64.2102 16.4091 64.3466 16.0114C64.4867 15.6136 64.5568 15.161 64.5568 14.6534C64.5568 14.1458 64.4867 13.6932 64.3466 13.2955C64.2102 12.8977 64.0076 12.5833 63.7386 12.3523C63.4697 12.1212 63.1345 12.0057 62.733 12.0057C62.3277 12.0057 61.9867 12.1212 61.7102 12.3523C61.4375 12.5833 61.2311 12.8977 61.0909 13.2955C60.9545 13.6932 60.8864 14.1458 60.8864 14.6534C60.8864 15.161 60.9545 15.6136 61.0909 16.0114C61.2311 16.4091 61.4375 16.7235 61.7102 16.9545C61.9867 17.1818 62.3277 17.2955 62.733 17.2955Z" fill="#48A6FB"/>
<path d="M40.0625 37H34.3906V21H40.1094C41.7188 21 43.1042 21.3203 44.2656 21.9609C45.4271 22.5964 46.3203 23.5104 46.9453 24.7031C47.5755 25.8958 47.8906 27.3229 47.8906 28.9844C47.8906 30.651 47.5755 32.0833 46.9453 33.2812C46.3203 34.4792 45.4219 35.3984 44.25 36.0391C43.0833 36.6797 41.6875 37 40.0625 37ZM37.7734 34.1016H39.9219C40.9219 34.1016 41.763 33.9245 42.4453 33.5703C43.1328 33.2109 43.6484 32.6562 43.9922 31.9062C44.3411 31.151 44.5156 30.1771 44.5156 28.9844C44.5156 27.8021 44.3411 26.8359 43.9922 26.0859C43.6484 25.3359 43.1354 24.7839 42.4531 24.4297C41.7708 24.0755 40.9297 23.8984 39.9297 23.8984H37.7734V34.1016ZM48.6365 21H52.8084L57.2146 31.75H57.4021L61.8084 21H65.9802V37H62.699V26.5859H62.5662L58.4255 36.9219H56.1912L52.0505 26.5469H51.9177V37H48.6365V21Z" fill="#474B53"/>
</svg>
